<?xml version="1.0" encoding="UTF-8" standalone="no"?>
<svg
    width="170px"
    height="30px"
    version="1.1"
    xmlns="http://www.w3.org/2000/svg"
    xmlns:xlink="http://www.w3.org/1999/xlink"
>

    <style>
        /* <![CDATA[ */
        .title {
          fill-rule: evenodd;
          fill: #FFFFFF;
        }
        .addthis-logo {
          fill: #FF6550;
        }
        /* ]]> */
    </style>

    <defs>
    </defs>

    <g class="title">
        <path
            class="addthis-logo"
            d="M27.2389811,25.1568 C27.2389811,26.6528 26.0368302,27.8656 24.5557358,27.8656 L3.0945283,27.8656 C1.61343396,27.8656 0.412075472,26.6528 0.412075472,25.1568 L0.412075472,3.4912 C0.412075472,1.996 1.61343396,0.7832 3.0945283,0.7832 L24.5557358,0.7832 C26.0368302,0.7832 27.2389811,1.996 27.2389811,3.4912 L27.2389811,25.1568"
        >
        </path>
        <path
            d="M21.4318868,12.4912 L15.7270189,12.4912 L15.7270189,6.7328 L11.9232453,6.7328 L11.9232453,12.4912 L6.21837736,12.4912 L6.21837736,16.3312 L11.9232453,16.3312 L11.9232453,22.092 L15.7270189,22.092 L15.7270189,16.3312 L21.4318868,16.3312 L21.4318868,12.4912"
        >
        </path>
        <path
            d="M155.873887,16.0136 C155.006151,15.8152 154.14,15.6528 153.361811,15.4648 C151.716679,15.068 150.470943,14.5512 150.470943,13.3176 C150.470943,11.8552 152.431472,11.596 153.493358,11.596 C155.102038,11.596 156.550642,12.0832 156.872377,13.8368 L160.699925,13.8368 C160.249811,10.1024 157.161623,8.6728 153.750906,8.6728 C150.727698,8.6728 146.802679,9.8096 146.802679,13.48 C146.802679,14.5952 147.088755,15.4472 147.563434,16.1128 C148.538943,17.4824 150.32434,18.056 152.142226,18.4488 C154.812,19.0656 157.483358,19.2928 157.580038,21.2432 C157.675925,23.1576 155.262906,23.4504 153.880868,23.4504 C151.917962,23.4504 150.308491,22.6712 150.116717,20.5272 L146.448453,20.5272 C146.511849,24.4896 149.633321,26.3744 153.815887,26.3744 C157.259094,26.3744 161.247509,24.9128 161.247509,20.9176 C161.247509,17.6048 158.545245,16.6296 155.873887,16.0136"
        >
        </path>
        <path
            d="M48.0939623,2.7288 L43.8155094,2.7288 L35.0002642,25.9184 L39.1503396,25.9184 L41.3066038,19.7808 L50.475283,19.7808 L52.6307547,25.9184 L56.9416981,25.9184 L48.0939623,2.7288 L48.0939623,2.7288 Z M42.4001887,16.6952 L45.8743019,6.724 L45.9709811,6.724 L49.4133962,16.6952 L42.4001887,16.6952 L42.4001887,16.6952 Z"
        >
        </path>
        <path
            d="M70.2937358,11.304 L70.2295472,11.304 C69.1034717,9.452 66.7871321,8.6728 64.6958491,8.6728 C61.6211321,8.6728 58.6018868,10.5864 57.7396981,14.848 C57.5827925,15.6256 57.4884906,16.4728 57.4884906,17.4104 C57.4884906,22.444 60.0306792,26.3744 65.2751321,26.3744 C67.3664151,26.3744 69.4569057,25.5616 70.4221132,23.6456 L70.4870943,23.6456 L70.4870943,25.9184 L73.9612075,25.9184 L73.9612075,2.7288 L70.2937358,2.7288 L70.2937358,11.304 L70.2937358,11.304 Z M70.4221132,17.5072 C70.4221132,20.4304 69.039283,23.4504 65.7569434,23.4504 C62.5720755,23.4504 61.1567547,20.5928 61.1567547,17.7016 C61.1567547,16.8944 61.2470943,16.0848 61.4404528,15.3296 C61.9713962,13.2552 63.2987547,11.596 65.8219245,11.596 C68.334,11.596 70.0068679,13.3384 70.3523774,16.3168 C70.3967547,16.6944 70.4221132,17.0896 70.4221132,17.5072 L70.4221132,17.5072 Z"
        >
        </path>
        <path
            d="M89.9513208,11.304 L89.8879245,11.304 C88.7610566,9.452 86.4455094,8.6728 84.3542264,8.6728 C80.8214717,8.6728 77.3600377,11.196 77.1650943,16.9104 C77.1595472,17.0776 77.1468679,17.2376 77.1468679,17.4104 C77.1468679,22.444 79.6890566,26.3744 84.9335094,26.3744 C87.024,26.3744 89.115283,25.5616 90.081283,23.6456 L90.1446792,23.6456 L90.1446792,25.9184 L93.6211698,25.9184 L93.6211698,2.7288 L89.9513208,2.7288 L89.9513208,11.304 L89.9513208,11.304 Z M90.0757358,17.6976 C90.0163019,20.56 88.6263396,23.4504 85.4161132,23.4504 C82.2312453,23.4504 80.8143396,20.5928 80.8143396,17.7016 C80.8143396,17.5272 80.8190943,17.3528 80.8278113,17.1792 C80.9641132,14.3352 82.236,11.596 85.4810943,11.596 C88.3117358,11.596 90.081283,13.8048 90.081283,17.5072 C90.081283,17.5704 90.0765283,17.6344 90.0757358,17.6976 L90.0757358,17.6976 Z"
        >
        </path>
        <path
            d="M99.4409434,6.2368 L106.710906,6.2368 L106.710906,25.9184 L110.733396,25.9184 L110.733396,6.2368 L118.037434,6.2368 L118.037434,2.7288 L99.4409434,2.7288 L99.4409434,6.2368"
        >
        </path>
        <path
            d="M129.703132,8.6728 C127.515962,8.6728 125.61883,9.8096 124.717811,11.3352 L124.65283,11.3352 L124.65283,2.7288 L120.986151,2.7288 L120.986151,25.9184 L124.65283,25.9184 L124.65283,16.0136 C124.65283,13.5448 126.228226,11.596 128.675321,11.596 C130.83,11.596 131.859396,12.732 131.924377,15.3632 L131.924377,25.9184 L135.591849,25.9184 L135.591849,14.3888 C135.591849,10.6208 133.306415,8.6728 129.703132,8.6728"
        >
        </path>
        <path
            d="M139.692,2.7288 L143.358679,2.7288 L143.358679,6.2368 L139.692,6.2368 L139.692,2.7288 Z"
        >
        </path>
        <path
            d="M139.692,16.836 L139.692,25.9184 L143.358679,25.9184 L143.358679,9.1272 L139.692,9.1272 L139.692,16.836"
        >
        </path>
        <path
            d="M162.505132,6.2344 L162.505132,3.148 L161.363208,3.148 L161.363208,2.7344 L164.111434,2.7344 L164.111434,3.148 L162.964755,3.148 L162.964755,6.2344 L162.505132,6.2344"
        >
        </path>
        <path
            d="M164.567887,6.2344 L164.567887,2.7344 L165.258113,2.7344 L166.079094,5.2128 C166.154377,5.4432 166.209849,5.6168 166.244717,5.7312 C166.283547,5.6032 166.345358,5.416 166.429358,5.1696 L167.259057,2.7344 L167.876377,2.7344 L167.876377,6.2344 L167.434189,6.2344 L167.434189,3.3048 L166.426981,6.2344 L166.012528,6.2344 L165.010075,3.2552 L165.010075,6.2344 L164.567887,6.2344"
        >
        </path>
    </g>

</svg>