<?xml version="1.0" encoding="utf-8"?>
<svg version="1.1" id="Layer_1" xmlns="http://www.w3.org/2000/svg" xmlns:xlink="http://www.w3.org/1999/xlink" x="0px" y="0px"
	 viewBox="-615 45 50 50" style="enable-background:new -615 45 50 50;" xml:space="preserve">
<g>
	<path d="M-592.2,83.5c-0.2,0-0.5-0.1-0.7-0.3l-10.5-9.5c-0.4-0.4-0.4-1-0.1-1.4c0.4-0.4,1-0.4,1.4-0.1l9.6,8.7l14.3-22
		c0.3-0.5,0.9-0.6,1.4-0.3c0.5,0.3,0.6,0.9,0.3,1.4l-14.9,23c-0.2,0.2-0.4,0.4-0.7,0.4C-592.1,83.5-592.2,83.5-592.2,83.5z"/>
</g>
<g>
	<path d="M-590,95c-13.8,0-25-11.2-25-25s11.2-25,25-25s25,11.2,25,25S-576.2,95-590,95z M-590,47c-12.7,0-23,10.3-23,23
		c0,12.7,10.3,23,23,23c12.7,0,23-10.3,23-23C-567,57.3-577.3,47-590,47z"/>
</g>
</svg>
