<?xml version="1.0" encoding="utf-8"?>
<svg version="1.1" id="Layer_1" xmlns="http://www.w3.org/2000/svg" xmlns:xlink="http://www.w3.org/1999/xlink" x="0px" y="0px"
	 viewBox="-615 45 50 50" style="enable-background:new -615 45 50 50;" xml:space="preserve">
<g>
	<path d="M-590,95c-13.8,0-25-11.2-25-25s11.2-25,25-25s25,11.2,25,25S-576.2,95-590,95z M-590,47c-12.7,0-23,10.3-23,23
		c0,12.7,10.3,23,23,23c12.7,0,23-10.3,23-23C-567,57.3-577.3,47-590,47z"/>
</g>
<g>
	<path d="M-591.2,61.2c-0.2,0-0.4-0.1-0.4-0.4v-2.6c0-0.2,0.1-0.4,0.4-0.4h2.4c0.2,0,0.4,0.1,0.4,0.4v2.6c0,0.2-0.1,0.4-0.4,0.4
		H-591.2z M-591.1,82.4c-0.4,0-0.4-0.2-0.4-0.5V65.5c0-0.2,0.1-0.4,0.4-0.4h2.3c0.2,0,0.4,0.1,0.4,0.4V82c0,0.2-0.1,0.4-0.4,0.4
		H-591.1L-591.1,82.4z"/>
</g>
</svg>
