<?xml version="1.0" encoding="UTF-8" standalone="no"?>
<svg
    width="100%"
    height="139px"
    version="1.1"
    xmlns="http://www.w3.org/2000/svg"
    xmlns:xlink="http://www.w3.org/1999/xlink"
>

    <style>
        /* <![CDATA[ */
        path.icon {
          fill-rule: evenodd;
          fill: #FFFFFF;
          opacity: .07;
        }
        /* ]]> */
    </style>

    <defs>

        <linearGradient x1="0%" y1="0%" x2="100%" y2="0%" id="blue-gradient">
            <stop stop-color="#37BAF4" offset="0%"></stop>
            <stop stop-color="#0088F7" offset="60%"></stop>
        </linearGradient>

        <pattern id="logo-pattern" x="0" y="0" width="790" height="300" patternUnits="userSpaceOnUse">
            <path
                class="icon twitter"
                d="M368.16362,161.919061 C364.759187,163.386011 361.061269,164.442216 357.245957,164.852962 C361.178663,162.505841 364.172216,158.809125 365.580947,154.408273 C361.941726,156.57936 357.832928,158.163667 353.548039,158.985159 C350.084909,155.288443 345.154351,153 339.69552,153 C329.188737,153 320.736353,161.508314 320.736353,171.953004 C320.736353,173.419954 320.912444,174.886905 321.205929,176.295178 C305.475103,175.473685 291.446493,167.962898 282.113652,156.462004 C280.470133,159.278549 279.530979,162.505841 279.530979,166.026523 C279.530979,172.598462 282.876715,178.407587 287.983363,181.810913 C284.872416,181.693556 281.937561,180.813386 279.413585,179.405113 L279.413585,179.639825 C279.413585,188.852276 285.928965,196.48042 294.616137,198.240761 C293.031315,198.651507 291.329099,198.886219 289.626883,198.886219 C288.394243,198.886219 287.220301,198.768863 286.046359,198.592829 C288.45294,206.103617 295.437897,211.560674 303.772887,211.736708 C297.257507,216.841696 289.098609,219.834276 280.235345,219.834276 C278.650523,219.834276 277.183095,219.775598 275.65697,219.599564 C284.050657,224.997942 294.029166,228.107878 304.770738,228.107878 C339.636823,228.107878 358.713385,199.238287 358.713385,174.182769 C358.713385,173.361276 358.713385,172.539784 358.654687,171.718291 C362.352606,169.019102 365.580947,165.674454 368.16362,161.919061 L368.16362,161.919061 Z"
                transform="translate(323.201573, 190.553939) rotate(-7.000000) translate(-323.201573, -190.553939) "
            >
            </path>
            <path
                class="icon vine"
                d="M794.336299,227.579917 C790.879133,228.402784 787.421968,228.731931 784.37637,228.731931 C767.090544,228.731931 753.755763,216.718073 753.755763,195.734965 C753.755763,185.449128 757.706809,180.100492 763.386438,180.100492 C768.736813,180.100492 772.276292,184.873121 772.276292,194.665238 C772.276292,200.178447 770.794649,206.267662 769.724574,209.805991 C775.074949,219.104387 789.562118,216.224353 789.562118,216.224353 C792.69003,209.394557 794.336299,200.507594 794.336299,192.690357 C794.336299,171.707249 783.635549,159.528818 764.044946,159.528818 C743.878148,159.528818 732.107323,174.998717 732.107323,195.488105 C732.107323,215.730633 741.573371,233.093126 757.130615,240.992649 C750.627852,254.076234 742.231879,265.678659 733.506652,274.401049 C717.784781,255.310535 703.462239,229.801658 697.617984,180.100492 L674.323275,180.100492 C685.024024,262.880911 717.126274,289.212654 725.60456,294.314429 C730.461054,297.194464 734.576727,297.029891 738.93934,294.56129 C745.853671,290.693815 766.514349,269.957567 778.038234,245.765278 C782.812414,245.765278 788.574357,245.189271 794.336299,243.872684 L794.336299,227.579917 Z"
                transform="translate(735.934824, 227.986267) rotate(-14.000000) translate(-735.934824, -227.986267) "
            >
            </path>
            <path
                class="icon slack"
                d="M384.288028,243.414161 C383.974208,243.414161 383.639466,243.476904 383.325646,243.581477 L379.894547,244.752691 L377.697807,238.143698 L380.982457,237.014313 C382.154052,236.616937 383.158276,235.529381 383.158276,234.23268 C383.158276,232.559518 381.756546,231.346475 380.124682,231.346475 C379.810862,231.346475 379.517963,231.388304 379.225065,231.471962 L375.835808,232.622261 L374.726977,229.255021 C374.308551,228.021064 373.136956,227.184482 371.818912,227.184482 C370.166126,227.184482 368.806239,228.564842 368.806239,230.21709 C368.806239,230.551722 368.869003,230.886355 368.97361,231.200073 L370.103362,234.546398 L363.617748,236.742424 L362.487996,233.396099 C362.069569,232.141227 360.918895,231.32556 359.600851,231.32556 C357.927144,231.32556 356.588179,232.705919 356.588179,234.358168 C356.588179,234.6928 356.650943,235.027433 356.75555,235.341151 L357.86438,238.666562 L354.579731,239.775032 C353.345372,240.193323 352.508518,241.364536 352.508518,242.661238 C352.508518,244.3344 353.805641,245.610187 355.479348,245.610187 C355.814089,245.610187 356.148831,245.547443 356.483572,245.442871 L359.747301,244.313486 L361.944041,250.859735 L358.680313,251.968205 C357.445954,252.386496 356.6091,253.55771 356.6091,254.854411 C356.6091,256.548488 357.885302,257.80336 359.57993,257.80336 C359.935593,257.80336 360.291255,257.719702 360.625997,257.61513 L363.826961,256.506659 L364.977635,259.915728 C365.396061,261.1706 366.546735,261.986267 367.864779,261.986267 C369.538486,261.986267 370.877451,260.584993 370.877451,258.95366 C370.877451,258.619027 370.814687,258.284395 370.710081,257.970677 L369.559407,254.540693 L376.045021,252.323752 L377.195695,255.774651 C377.614122,257.029523 378.785716,257.845189 380.103761,257.845189 C381.756546,257.845189 383.095512,256.46483 383.095512,254.812582 C383.095512,254.477949 383.053669,254.143317 382.949062,253.829599 L381.777468,250.336872 L385.375937,249.102914 C386.631218,248.663709 387.321622,247.722555 387.321622,246.384025 C387.321622,244.669033 386.003577,243.414161 384.288028,243.414161 L384.288028,243.414161 Z M367.676487,248.893769 L365.479747,242.34752 L371.965361,240.109664 L374.162101,246.697743 L367.676487,248.893769 Z"
            >
            </path>
            <path
                class="icon slack"
                d="M70.6191181,73.2264102 C70.1213806,73.2264102 69.5904606,73.3259254 69.0927231,73.4917839 L63.6507932,75.3493998 L60.1666308,64.867139 L65.3762832,63.0758666 C67.2345032,62.4456041 68.8272631,60.7206751 68.8272631,58.664029 C68.8272631,56.0102921 66.6040357,54.0863329 64.0158007,54.0863329 C63.5180632,54.0863329 63.0535082,54.1526763 62.5889532,54.2853632 L57.2133884,56.1098073 L55.4547159,50.7691618 C54.7910659,48.8120308 52.9328459,47.4851624 50.8423485,47.4851624 C48.220931,47.4851624 46.0640686,49.6744953 46.0640686,52.2950605 C46.0640686,52.8258079 46.1636161,53.3565553 46.3295286,53.8541309 L48.1213835,59.1616047 L37.8348088,62.6446344 L36.0429538,57.3371606 C35.3793038,55.3468579 33.5542663,54.0531612 31.4637689,54.0531612 C28.8091689,54.0531612 26.685489,56.2424941 26.685489,58.8630593 C26.685489,59.3938067 26.7850365,59.9245541 26.950949,60.4221297 L28.7096214,65.6964318 L23.499969,67.4545325 C21.5422016,68.1179667 20.2149016,69.9755825 20.2149016,72.0322286 C20.2149016,74.6859655 22.2722166,76.7094399 24.9268165,76.7094399 C25.4577365,76.7094399 25.9886565,76.6099248 26.5195765,76.4440662 L31.6960464,74.6527938 L35.1802088,85.0355394 L30.0037389,86.7936401 C28.0459715,87.4570743 26.7186715,89.3146902 26.7186715,91.3713363 C26.7186715,94.0582449 28.7428039,96.0485475 31.4305864,96.0485475 C31.9946889,96.0485475 32.5587914,95.9158607 33.0897114,95.7500021 L38.1666337,93.9919014 L39.9916712,99.3988904 C40.6553212,101.389193 42.4803587,102.68289 44.5708561,102.68289 C47.2254561,102.68289 49.349136,100.460385 49.349136,97.8729916 C49.349136,97.3422443 49.2495885,96.8114969 49.083676,96.3139212 L47.2586386,90.8737606 L57.5452134,87.3575592 L59.3702508,92.8308915 C60.0339008,94.8211942 61.8921208,96.114891 63.9826182,96.114891 C66.6040357,96.114891 68.7277156,93.925558 68.7277156,91.3049928 C68.7277156,90.7742455 68.6613506,90.2434981 68.4954381,89.7459224 L66.6372182,84.2062466 L72.3446081,82.2491157 C74.335558,81.5525097 75.4305805,80.0597827 75.4305805,77.9367932 C75.4305805,75.2167129 73.340083,73.2264102 70.6191181,73.2264102 L70.6191181,73.2264102 Z M44.2722136,81.9173986 L40.7880512,71.534653 L51.074626,67.9852799 L54.5587884,78.4343689 L44.2722136,81.9173986 Z"
            >
            </path>
            <path
                class="icon vimeo"
                d="M491.881169,217.146426 C492.396887,206.216775 488.32272,200.597284 479.710242,200.339509 C468.055032,199.978625 460.164558,206.526104 456.03882,220.033504 C458.204833,219.157069 460.267702,218.693075 462.278999,218.693075 C466.50788,218.693075 468.364463,221.064603 467.900317,225.859214 C467.642458,228.746292 465.785876,232.973798 462.278999,238.541734 C458.72055,244.109669 456.090392,246.842082 454.336953,246.842082 C452.067797,246.842082 450.0565,242.563021 448.148346,234.004897 C447.529486,231.530259 446.343336,225.08589 444.744612,214.774898 C443.197461,205.23723 439.226438,200.803504 432.676829,201.422163 C429.891955,201.679938 425.714646,204.103021 420.248043,208.949187 C416.173876,212.50648 412.09971,216.218437 407.973972,219.878839 L411.944995,224.931225 C415.709731,222.301922 417.875743,221.013048 418.494604,221.013048 C421.382621,221.013048 424.115922,225.498329 426.591365,234.520447 C428.860521,242.820795 431.129677,251.121144 433.398833,259.369937 C436.750995,268.392055 440.876733,272.928891 445.776047,272.928891 C453.718093,272.928891 463.310434,265.504977 474.759357,250.708704 C485.795706,236.479535 491.520167,225.292109 491.881169,217.146426 L491.881169,217.146426 Z"
                transform="translate(452.067742, 236.627131) rotate(-15.000000) translate(-452.067742, -236.627131) "
            >
            </path>
            <path
                class="icon tumblr"
                d="M687.120187,136.800491 C686.507594,137.096811 685.341691,137.353621 684.472204,137.373376 C681.824221,137.43264 681.310434,135.51644 681.310434,134.133615 L681.310434,123.90071 L687.91063,123.90071 L687.91063,118.92254 L681.330195,118.92254 L681.330195,110.546571 L676.508494,110.546571 C676.42945,110.546571 676.291123,110.62559 676.271361,110.783627 C675.994707,113.35173 674.789281,117.855789 669.809492,119.653461 L669.809492,123.90071 L673.129352,123.90071 L673.129352,134.647235 C673.129352,138.321599 675.836618,143.536825 683.009885,143.418297 C685.420736,143.378787 688.108241,142.371301 688.701073,141.482342 L687.120187,136.800491 Z"
            >
            </path>
            <path
                class="icon tumblr"
                d="M175.617936,150.645213 C174.715646,151.081663 172.998385,151.45992 171.717716,151.489017 C167.817496,151.576306 167.060737,148.753931 167.060737,146.717165 L167.060737,131.645097 L176.782181,131.645097 L176.782181,124.312739 L167.089843,124.312739 L167.089843,111.975757 L159.98795,111.975757 C159.871525,111.975757 159.667782,112.092143 159.638676,112.324916 C159.23119,116.107482 157.455717,122.74152 150.120975,125.389315 L150.120975,131.645097 L155.010803,131.645097 L155.010803,147.473678 C155.010803,152.885656 158.998341,160.567173 169.563863,160.392594 C173.114809,160.3344 177.073242,158.850471 177.946425,157.541121 L175.617936,150.645213 Z"
                transform="translate(164.033700, 136.185637) rotate(-29.000000) translate(-164.033700, -136.185637) "
            >
            </path>
            <path
                class="icon tumblr"
                d="M772.761497,52.4446736 C771.824636,52.897846 770.041578,53.2905954 768.71184,53.3208069 C764.662183,53.4114414 763.876429,50.4809266 763.876429,48.3661221 L763.876429,32.7165687 L773.970349,32.7165687 L773.970349,25.1032724 L763.90665,25.1032724 L763.90665,12.2935994 L756.532649,12.2935994 C756.411763,12.2935994 756.200214,12.4144454 756.169993,12.6561373 C755.746894,16.5836314 753.903394,23.4718518 746.287622,26.2210977 L746.287622,32.7165687 L751.364803,32.7165687 L751.364803,49.1516209 C751.364803,54.7709586 755.505124,62.7467928 766.475462,62.5655238 C770.162463,62.5051008 774.272563,60.9643147 775.179202,59.6047975 L772.761497,52.4446736 Z"
                transform="translate(760.733412, 37.431079) rotate(17.000000) translate(-760.733412, -37.431079) "
            >
            </path>
            <path
                class="icon pinterest"
                d="M575.08239,148.778024 C575.08239,154.853826 577.494943,163.712437 584.129463,165.706784 C584.36144,165.753164 584.686206,165.845925 584.918183,165.845925 C586.449226,165.845925 587.330736,161.57895 587.330736,160.373065 C587.330736,158.93528 583.665511,155.874189 583.665511,149.891148 C583.665511,137.461264 593.130142,128.649032 605.378488,128.649032 C615.910209,128.649032 623.704611,134.632073 623.704611,145.624173 C623.704611,153.833462 620.410548,169.231677 609.739641,169.231677 C605.888835,169.231677 602.594773,166.448867 602.594773,162.460173 C602.594773,156.616272 606.677555,150.957892 606.677555,144.92847 C606.677555,141.264437 604.589768,138.296106 600.692567,138.296106 C595.403509,138.296106 592.155841,144.232768 592.155841,148.917164 C592.155841,151.514454 592.480608,154.390024 593.640489,156.755412 C591.506308,165.938685 587.145155,179.620834 587.145155,189.082388 C587.145155,192.004338 587.562712,194.879908 587.841083,197.801859 L588.258641,198.26566 L588.908174,198.03376 C596.702576,187.366322 596.424204,185.279214 599.950243,171.318784 C601.852449,174.936437 606.770345,176.884404 610.667546,176.884404 C627.091464,176.884404 634.468309,160.883247 634.468309,146.459016 C634.468309,131.107181 621.199268,121.089065 606.631159,121.089065 C590.763984,121.089065 575.08239,131.663743 575.08239,148.778024 L575.08239,148.778024 Z"
            >
            </path>
            <path
                class="icon pinterest"
                d="M448.115109,130.842837 C448.115109,133.385833 449.12487,137.09356 451.901715,137.928284 C451.998808,137.947696 452.134737,137.98652 452.23183,137.98652 C452.87264,137.98652 453.241592,136.2006 453.241592,135.695883 C453.241592,135.094105 451.70753,133.812901 451.70753,131.308729 C451.70753,126.106264 455.668904,122.417949 460.795387,122.417949 C465.203386,122.417949 468.465693,124.922121 468.465693,129.522809 C468.465693,132.958765 467.08698,139.40361 462.620725,139.40361 C461.00899,139.40361 459.630277,138.238879 459.630277,136.569431 C459.630277,134.123496 461.339105,131.75521 461.339105,129.231626 C461.339105,127.698063 460.465272,126.455684 458.834119,126.455684 C456.62041,126.455684 455.261115,128.940443 455.261115,130.901074 C455.261115,131.988156 455.397045,133.191711 455.882507,134.181733 C454.989256,138.025345 453.163918,143.751939 453.163918,147.712024 C453.163918,148.934992 453.338684,150.138547 453.455195,151.361515 L453.629962,151.555637 L453.901821,151.458576 C457.164128,146.993773 457.047617,146.120225 458.523423,140.277158 C459.319581,141.791308 461.377942,142.60662 463.009095,142.60662 C469.883243,142.60662 472.970784,135.909417 472.970784,129.872228 C472.970784,123.446795 467.417094,119.253764 461.319686,119.253764 C454.67856,119.253764 448.115109,123.679741 448.115109,130.842837 L448.115109,130.842837 Z"
                transform="translate(460.542946, 135.404700) rotate(49.000000) translate(-460.542946, -135.404700) "
            >
            </path>
            <path
                class="icon linkedin"
                d="M514.200468,125.26827 L503.261684,125.26827 L503.261684,158.107092 L514.200468,158.107092 L514.200468,125.26827 Z M514.896573,115.128331 C514.863425,111.914037 512.543077,109.461895 508.797372,109.461895 C505.084814,109.461895 502.631875,111.914037 502.631875,115.128331 C502.631875,118.276352 504.985371,120.794768 508.66478,120.794768 L508.731076,120.794768 C512.543077,120.794768 514.929721,118.276352 514.896573,115.128331 L514.896573,115.128331 Z M553.546945,139.285245 C553.546945,129.21158 548.176996,124.506118 540.983917,124.506118 C535.083602,124.506118 532.498072,127.786686 531.072715,130.040006 L531.13901,130.040006 L531.13901,125.26827 L520.233374,125.26827 C520.233374,125.26827 520.365965,128.350016 520.233374,158.107092 L531.13901,158.107092 L531.13901,139.7823 C531.13901,138.788189 531.238454,137.827214 531.503637,137.098199 C532.299185,135.143113 534.089167,133.121752 537.10562,133.121752 C541.050212,133.121752 542.641308,136.137224 542.641308,140.544453 L542.641308,158.107092 L553.546945,158.107092 L553.546945,139.285245 Z"
                transform="translate(528.089410, 133.784493) rotate(-18.000000) translate(-528.089410, -133.784493) "
            >
            </path>
            <path
                class="icon foursquare"
                d="M534.254905,195.198008 C534.459398,194.263487 533.758279,193.533392 532.96952,193.533392 L512.169664,193.533392 C511.234839,193.533392 510.592147,194.380302 510.592147,195.110396 L510.592147,227.263762 C510.592147,227.351374 510.679787,227.380577 510.767426,227.292966 C518.421306,218.093774 519.268491,217.013234 519.268491,217.013234 C520.14489,215.991102 520.495449,215.815879 521.780833,215.815879 L528.762808,215.815879 C529.726846,215.815879 530.281898,214.998173 530.369538,214.530913 C530.457178,214.063652 531.27515,209.7999 531.45043,208.95299 C531.625709,208.10608 530.836951,207.229967 530.048192,207.229967 L521.459487,207.229967 C520.320169,207.229967 519.502198,206.412261 519.502198,205.273313 L519.502198,204.046754 C519.502198,202.907807 520.320169,202.119305 521.459487,202.119305 L531.567283,202.119305 C532.268401,202.119305 533.05716,201.476821 533.174013,200.863542 L534.254905,195.198008 Z M539.805428,194.380302 C538.724537,199.636983 535.481862,216.253936 535.18973,217.451291 C534.83917,218.823869 534.313331,221.218579 530.983017,221.218579 L523.066218,221.218579 C522.744872,221.218579 522.715658,221.189375 522.423526,221.510617 C522.423526,221.510617 522.219033,221.744247 509.978668,235.937286 C509.01463,237.04703 507.437112,236.842603 506.852847,236.608973 C506.268581,236.375343 505.246116,235.674452 505.246116,233.747002 L505.246116,192.569667 C505.246116,190.875848 506.297794,188.1891 509.861815,188.1891 L535.803209,188.1891 C539.600935,188.1891 540.6234,190.35018 539.805428,194.380302 L539.805428,194.380302 Z M539.805428,194.380302 C538.724537,199.636983 535.481862,216.253936 535.18973,217.451291 L539.805428,194.380302 Z"
                transform="translate(523.299902, 212.491102) rotate(-6.000000) translate(-523.299902, -212.491102) "
            >
            </path>
            <path
                class="icon foursquare"
                d="M226.683237,104.673452 C226.80408,104.121204 226.389759,103.68976 225.923648,103.68976 L213.632128,103.68976 C213.0797,103.68976 212.699906,104.190235 212.699906,104.621679 L212.699906,123.62247 C212.699906,123.674244 212.751696,123.691501 212.803487,123.639728 C217.32649,118.203534 217.827127,117.564997 217.827127,117.564997 C218.345029,116.960976 218.552189,116.857429 219.311777,116.857429 L223.437723,116.857429 C224.007414,116.857429 224.335418,116.374212 224.387208,116.098088 C224.438998,115.821964 224.922373,113.302331 225.025953,112.801856 C225.129533,112.301381 224.663422,111.783648 224.197311,111.783648 L219.12188,111.783648 C218.448609,111.783648 217.965234,111.300431 217.965234,110.627378 L217.965234,109.902553 C217.965234,109.2295 218.448609,108.76354 219.12188,108.76354 L225.095007,108.76354 C225.509327,108.76354 225.975438,108.38387 226.044492,108.021457 L226.683237,104.673452 Z M229.963277,104.190235 C229.324532,107.296631 227.408298,117.116295 227.235665,117.823864 C227.028504,118.634978 226.717763,120.050114 224.749739,120.050114 L220.071366,120.050114 C219.881469,120.050114 219.864205,120.032857 219.691572,120.222692 C219.691572,120.222692 219.570728,120.360754 212.337376,128.748024 C211.767684,129.403819 210.835462,129.283015 210.490195,129.144953 C210.144927,129.006891 209.540709,128.592705 209.540709,127.453693 L209.540709,103.120254 C209.540709,102.119304 210.162191,100.53159 212.268322,100.53159 L227.598195,100.53159 C229.842434,100.53159 230.446652,101.808664 229.963277,104.190235 L229.963277,104.190235 Z M229.963277,104.190235 C229.324532,107.296631 227.408298,117.116295 227.235665,117.823864 L229.963277,104.190235 Z"
                transform="translate(220.209459, 114.892677) rotate(-11.000000) translate(-220.209459, -114.892677) "
            >
            </path>
            <path
                class="icon facebook"
                d="M329.098744,46.9997885 L264.966392,46.9997885 C262.759789,46.9997885 260.975726,48.783271 260.975726,50.9891572 L260.975726,115.100658 C260.975726,117.306544 262.759789,119.090027 264.966392,119.090027 L299.473917,119.090027 L299.473917,91.1644463 L290.084114,91.1644463 L290.084114,80.2758165 L299.473917,80.2758165 L299.473917,72.2501455 C299.473917,62.9572632 305.201696,57.8884183 313.511672,57.8884183 C317.455389,57.8884183 320.882667,58.1700208 321.868596,58.310822 L321.868596,68.0261081 L316.140816,68.0730418 C311.586762,68.0730418 310.74168,70.1850605 310.74168,73.3296217 L310.74168,80.2758165 L321.493004,80.2758165 L320.084533,91.1644463 L310.74168,91.1644463 L310.74168,119.090027 L329.098744,119.090027 C331.305347,119.090027 333.08941,117.306544 333.08941,115.100658 L333.08941,50.9891572 C333.08941,48.783271 331.305347,46.9997885 329.098744,46.9997885 L329.098744,46.9997885 Z"
                transform="translate(297.032568, 83.044908) rotate(14.000000) translate(-297.032568, -83.044908) "
            >
            </path>
            <path
                class="icon facebook"
                d="M114.380557,10.8935975 L89.619443,10.8935975 C88.7674867,10.8935975 88.0786709,11.5821893 88.0786709,12.4338687 L88.0786709,37.1869324 C88.0786709,38.0386117 88.7674867,38.7272035 89.619443,38.7272035 L102.94259,38.7272035 L102.94259,27.9453054 L99.3172439,27.9453054 L99.3172439,23.7412711 L102.94259,23.7412711 L102.94259,20.6426079 C102.94259,17.0546822 105.154051,15.0976317 108.362482,15.0976317 C109.885128,15.0976317 111.208379,15.2063568 111.58904,15.2607193 L111.58904,19.0117326 L109.377579,19.0298534 C107.619286,19.0298534 107.293005,19.8452911 107.293005,21.0593872 L107.293005,23.7412711 L111.444027,23.7412711 L110.900225,27.9453054 L107.293005,27.9453054 L107.293005,38.7272035 L114.380557,38.7272035 C115.232513,38.7272035 115.921329,38.0386117 115.921329,37.1869324 L115.921329,12.4338687 C115.921329,11.5821893 115.232513,10.8935975 114.380557,10.8935975 L114.380557,10.8935975 Z"
            >
            </path>
            <path
                class="icon addthis"
                d="M488.11154,75.7747195 C488.11154,80.107956 484.74476,83.6196381 480.596934,83.6196381 L420.491918,83.6196381 C416.341133,83.5825755 412.974353,80.1851698 412.974353,75.7747195 L412.974353,13.0246363 C412.974353,8.69448829 416.341133,5.17971767 420.491918,5.17971767 L480.596934,5.17971767 C484.74476,5.17971767 487.9932,8.57712337 487.9932,13.0246363 L487.9932,75.7747195 L488.11154,75.7747195 Z M471.84863,39.1074464 L455.872696,39.1074464 L455.872696,22.429273 L445.222073,22.429273 L445.222073,39.1074464 L429.246138,39.1074464 L429.246138,50.2262287 L445.222073,50.2262287 L445.222073,66.9044021 L455.872696,66.9044021 L455.872696,50.2262287 L471.84863,50.2262287 L471.84863,39.1074464 Z"
                transform="translate(450.542946, 44.399678) rotate(-7.000000) translate(-450.542946, -44.399678) "
            >
            </path>
            <path
                class="icon addthis"
                d="M236.85984,194.751594 C236.85984,196.527477 235.480038,197.966664 233.780141,197.966664 L209.147403,197.966664 C207.446294,197.951475 206.066492,196.559121 206.066492,194.751594 L206.066492,169.034832 C206.066492,167.260215 207.446294,165.819762 209.147403,165.819762 L233.780141,165.819762 C235.480038,165.819762 236.811341,167.212115 236.811341,169.034832 L236.811341,194.751594 L236.85984,194.751594 Z M230.194839,179.724307 L223.647448,179.724307 L223.647448,172.889119 L219.282521,172.889119 L219.282521,179.724307 L212.735131,179.724307 L212.735131,184.281099 L219.282521,184.281099 L219.282521,191.116287 L223.647448,191.116287 L223.647448,184.281099 L230.194839,184.281099 L230.194839,179.724307 Z"
                transform="translate(221.463166, 181.893213) rotate(-43.000000) translate(-221.463166, -181.893213) "
            >
            </path>
            <path
                class="icon vkontakte"
                d="M574.602846,59.1978703 C574.602846,59.1978703 574.171019,57.9640796 571.487525,58.303372 L562.604231,58.3650615 C561.925646,58.2725272 561.43213,58.5501302 561.43213,58.5501302 C561.43213,58.5501302 560.907769,58.8277331 560.661011,59.506318 C559.211307,63.2385349 557.360621,66.4463908 557.360621,66.4463908 C553.41249,73.1705503 551.808562,73.5406875 551.160822,73.1088608 C549.649429,72.1526729 550.050411,69.22242 550.050411,67.1249757 C550.050411,60.5858849 551.037443,57.8715453 548.10719,57.1621156 C547.151002,56.9462022 546.441573,56.7919784 543.943147,56.7611336 C540.766135,56.7302888 538.082641,56.7611336 536.571247,57.501408 C535.55337,57.9949243 534.78225,59.105336 535.244922,59.1670255 C535.830972,59.2595598 537.157297,59.5371627 537.866727,60.4933506 C537.866727,60.4933506 538.637846,61.757986 538.761225,64.5340152 C539.100518,72.2143625 537.527435,73.1705503 537.527435,73.1705503 C536.324489,73.8182904 534.227045,72.7387235 531.142568,66.3847013 C531.142568,66.3847013 529.353571,63.2385349 527.965557,59.7839209 C527.718798,59.1361808 527.225282,58.7968883 527.225282,58.7968883 C527.225282,58.7968883 526.670076,58.3650615 525.868112,58.2416825 L517.416646,58.303372 C516.121166,58.303372 515.658494,58.8894226 515.658494,58.8894226 C515.658494,58.8894226 515.195823,59.3829389 515.627649,60.4008162 C522.22843,75.9157347 529.754553,83.6886163 529.754553,83.6886163 C529.754553,83.6886163 536.632936,90.8754472 544.436663,90.381931 L547.983811,90.381931 C549.063378,90.2893966 549.618584,89.7033461 549.618584,89.7033461 C549.618584,89.7033461 550.1121,89.1481402 550.081255,88.1302629 C550.019566,83.3801686 552.240389,82.6707389 552.240389,82.6707389 C554.399523,81.992154 557.175552,87.2666094 560.13665,89.3023641 C560.13665,89.3023641 562.388318,90.8446025 564.08478,90.50531 L571.981041,90.381931 C576.145085,90.3510862 574.171019,86.8964721 574.171019,86.8964721 C574.016796,86.6188692 573.029763,84.4905802 568.279669,80.0797784 C563.344506,75.4839079 563.992246,76.2241823 569.976131,68.2662321 C573.615814,63.4236035 575.065518,60.4625058 574.602846,59.1978703 L574.602846,59.1978703 Z"
            >
            </path>
            <path
                class="icon phone"
                d="M768.985876,132.672881 C768.5215,132.545591 767.603749,132.403371 766.77793,132.048214 C752.291136,125.809392 741.766857,115.588412 735.786546,100.906752 C733.781323,95.9864125 735.875336,91.8298175 740.928467,90.1310352 C741.835217,89.8253801 742.723896,89.8049507 743.616503,90.1326067 C745.771018,90.9246384 751.228808,98.4371535 751.350598,100.684386 C751.444102,102.408313 750.273341,103.341778 749.111223,104.130667 C746.914278,105.622798 746.902492,107.514088 747.841458,109.62303 C749.962185,114.390149 753.584473,117.666709 758.27459,119.793723 C759.976515,120.565325 761.603009,120.489108 762.765127,118.729037 C764.834781,115.594698 767.371954,115.746347 770.146422,117.69421 C771.537192,118.670106 772.949963,119.625573 774.272373,120.690259 C776.067802,122.136031 778.339393,123.340579 777.264493,126.374344 C776.147948,129.528327 772.284436,132.705883 768.985876,132.672881 Z M758.335092,89.3421465 C768.508142,89.6855174 777.267636,98.9989617 777.143488,109.046293 C777.131702,110.032403 777.486073,111.493891 776.016729,111.465604 C774.610244,111.438103 774.977973,109.9554 774.853039,108.970075 C773.503914,98.3020053 768.619718,93.2661608 758.028651,91.6380956 C757.150973,91.5029473 755.813634,91.6930978 755.880422,90.5333371 C755.978641,88.8125539 757.566633,89.4529367 758.335092,89.3421465 Z M771.921422,107.246935 C771.821632,107.983964 772.251435,109.246658 771.060244,109.427379 C769.451823,109.671746 769.76455,108.200044 769.608186,107.254007 C768.530929,100.765318 766.253052,98.3837228 759.711719,96.9222357 C758.748394,96.7061556 757.249977,96.8570188 757.499059,95.3735309 C757.736354,93.9599743 759.081551,94.4400649 760.099877,94.5626412 C766.634924,95.3476012 771.974067,101.017543 771.921422,107.246935 Z M766.950008,106.065173 C766.979867,106.887063 766.892649,107.752955 765.919896,107.86846 C765.218225,107.951749 764.756992,107.363225 764.684703,106.63641 C764.416764,103.960946 763.004779,102.378454 760.321457,101.947866 C759.517639,101.819003 758.728751,101.559707 759.103551,100.473806 C759.353419,99.7469917 760.020517,99.6739173 760.700187,99.6566309 C763.600374,99.5843423 766.997939,103.05891 766.950008,106.065173 Z"
            >
            </path>
            <path
                class="icon kik"
                d="M416.573401,169.618844 L421.130891,165.061353 C422.595194,163.597051 422.595194,161.222948 421.130891,159.758646 C419.666589,158.294343 417.292486,158.294343 415.828183,159.758646 L409.105586,166.481243 L409.105586,153.244358 C409.105586,151.173521 407.426841,149.494777 405.356005,149.494777 C403.285169,149.494777 401.606424,151.173521 401.606424,153.244358 L401.606424,180.741283 C401.606424,182.812119 403.285169,184.490864 405.356005,184.490864 C407.426841,184.490864 409.105586,182.812119 409.105586,180.741283 L409.105586,177.086659 L411.212204,174.980041 L417.133015,182.973137 C418.365634,184.637172 420.713836,184.986904 422.377871,183.754286 C424.041907,182.521667 424.391639,180.173465 423.15902,178.509429 L416.573401,169.618844 Z M429.103349,174.491982 C431.289232,174.491982 433.06124,172.719974 433.06124,170.534091 C433.06124,168.348208 431.289232,166.5762 429.103349,166.5762 C426.917467,166.5762 425.145459,168.348208 425.145459,170.534091 C425.145459,172.719974 426.917467,174.491982 429.103349,174.491982 Z"
                transform="translate(417.333832, 166.992939) rotate(-17.000000) translate(-417.333832, -166.992939) "
            >
            </path>
            <path
                class="icon amazon"
                d="M409.129188,121.138105 L408.076851,121.554939 C403.242724,123.438911 398.170729,124.305448 393.473601,124.305448 C385.991318,124.305448 378.780022,122.258627 372.938722,118.882119 C372.396746,118.598254 372.020374,119.136105 372.472021,119.509612 C377.891783,124.38015 385.027804,127.308449 393.0069,127.308449 C397.959961,127.308449 403.667272,125.933941 408.076851,123.304448 C408.663992,122.960821 409.249628,122.587314 409.793109,122.183926 C410.562415,121.646075 409.898494,120.807924 409.129188,121.138105 L409.129188,121.138105 Z M413.632108,118.553433 C413.255736,118.090284 410.485635,117.671955 408.091906,118.390584 C407.430996,118.599748 406.827295,118.898554 406.285318,119.272061 C405.863781,119.570867 405.954111,119.92794 406.375648,119.899554 C406.843855,119.808418 407.430996,119.780031 408.093412,119.688896 C409.568791,119.570867 411.28505,119.526046 411.706587,120.062403 C412.293728,120.779538 411.044171,123.858733 410.485635,125.18842 C410.321536,125.606749 410.697909,125.771092 411.074281,125.472286 C412.971198,123.88712 413.752547,121.020076 413.799217,119.511106 L413.799217,119.257121 C413.797712,118.92694 413.722437,118.686401 413.632108,118.553433 L413.632108,118.553433 Z M405.30675,115.714776 C404.341731,114.504611 403.393273,113.473731 403.393273,111.143044 L403.393273,103.374088 C403.393273,100.087222 403.649206,97.0692812 401.225368,94.8282362 C399.223066,93.0055196 396.091648,92.3182658 393.66781,92.3182658 L392.629022,92.3182658 C388.187827,92.5722509 383.490699,94.469669 382.451912,99.9228786 C382.286308,100.610132 382.798174,100.879058 383.159492,100.953759 L388.022223,101.551371 C388.549145,101.461729 388.805078,101.028461 388.895407,100.595192 C389.331999,98.697774 390.897709,97.7415947 392.644077,97.5772514 L392.990339,97.5772514 C394.029127,97.5772514 395.158244,98.0105202 395.775495,98.8621173 C396.466515,99.892998 396.377691,101.282446 396.377691,102.49261 L396.377691,103.179864 C395.248574,103.269506 393.937292,103.359148 392.644077,103.523491 C390.641775,103.777476 388.639474,104.121103 386.983435,104.897999 C383.761688,106.197805 381.593782,108.96176 381.593782,113.012076 C381.593782,118.105224 384.90586,120.69139 389.076066,120.69139 C390.461117,120.69139 391.605289,120.527046 392.644077,120.258121 C394.300115,119.735211 395.685166,118.793972 397.339699,117.059403 C398.304718,118.359209 398.560651,118.958315 400.215184,120.331329 C400.653282,120.510612 401.088368,120.510612 401.436136,120.241687 C402.473419,119.375149 404.311622,117.819864 405.275135,116.954821 C405.653013,116.670955 405.562683,116.148045 405.30675,115.714776 L405.30675,115.714776 Z M395.387079,113.457296 C394.784883,114.668955 393.746095,115.444356 392.600417,115.698341 L391.907892,115.789477 C389.99592,115.789477 388.866803,114.325328 388.866803,112.158984 C388.866803,109.393535 390.522842,108.095223 392.615472,107.497611 C393.74459,107.243626 395.054366,107.153984 396.349087,107.153984 L396.349087,108.184865 C396.349087,110.186865 396.424361,111.740656 395.387079,113.457296 L395.387079,113.457296 Z"
            >
            </path>
            <path
                class="icon behance"
                d="M220.244741,20.8935975 C221.328694,20.8935975 222.307262,20.9832393 223.210556,21.1774632 C224.098795,21.3716871 224.866594,21.6704931 225.4989,22.1037618 C226.131206,22.5370305 226.628017,23.1047619 226.97428,23.8218963 C227.320542,24.5240904 227.501201,25.4205084 227.501201,26.4663294 C227.501201,27.6017922 227.245268,28.5430312 226.718347,29.3049865 C226.191425,30.0669418 225.423625,30.6794941 224.399892,31.1575837 C225.799998,31.5609718 226.838786,32.2631659 227.516256,33.2492257 C228.208781,34.2502258 228.539989,35.4603901 228.539989,36.8647783 C228.539989,38.0002411 228.314166,38.9863009 227.877574,39.8229577 C227.425927,40.6596146 226.823731,41.3468684 226.086041,41.8682848 C225.333296,42.3926894 224.475167,42.7796431 223.496599,43.0336282 C222.533085,43.2876133 221.539462,43.4071357 220.530784,43.4071357 L209.540709,43.4071357 L209.540709,20.8935975 L220.244741,20.8935975 L220.244741,20.8935975 Z M219.612435,30.0071806 C220.500674,30.0071806 221.238364,29.7980164 221.81045,29.379688 C222.382536,28.9613596 222.668579,28.2741057 222.668579,27.3328668 C222.668579,26.8099563 222.57825,26.3766876 222.382536,26.0330607 C222.186823,25.6894338 221.930889,25.4354487 221.614737,25.2561651 C221.298584,25.0619412 220.937266,24.9274785 220.515729,24.8677173 C220.109247,24.7930158 219.672655,24.7631352 219.236063,24.7631352 L214.55399,24.7631352 L214.55399,30.0221209 L219.612435,30.0221209 L219.612435,30.0071806 L219.612435,30.0071806 Z M219.883423,39.5839129 C220.380235,39.5839129 220.846937,39.539092 221.283529,39.4494502 C221.735176,39.3583144 222.126603,39.1954651 222.457811,38.9713606 C222.789019,38.7472561 223.075062,38.4484501 223.270775,38.0749426 C223.466489,37.7014351 223.571873,37.2084052 223.571873,36.6107932 C223.571873,35.4454498 223.240665,34.6237333 222.593305,34.1307034 C221.930889,33.6376735 221.057705,33.3986287 219.988808,33.3986287 L214.55399,33.3986287 L214.55399,39.5988532 L219.883423,39.5988532 L219.883423,39.5839129 L219.883423,39.5839129 Z M235.691065,39.5077174 C236.368535,40.1650906 237.347104,40.4937772 238.610209,40.4937772 C239.528558,40.4937772 240.312918,40.2711668 240.973828,39.8080174 C241.621189,39.3583144 242.027671,38.8652845 242.179725,38.3573143 L246.154218,38.3573143 C245.520407,40.3159877 244.543344,41.7188818 243.218513,42.5704789 C241.908737,43.422076 240.312918,43.8404045 238.461166,43.8404045 C237.16795,43.8404045 236.007218,43.6312403 234.953375,43.2278521 C233.914587,42.8110178 233.026348,42.2283461 232.303713,41.4813311 C231.581078,40.7193758 231.024047,39.8244518 230.634125,38.7621964 C230.241192,37.7163754 230.045479,36.551032 230.045479,35.2796125 C230.045479,34.0560019 230.257753,32.9205391 230.647675,31.8747181 C231.054157,30.8139568 231.624737,29.9025985 232.363933,29.1406432 C233.116678,28.3786878 233.989862,27.7661355 235.030155,27.3179265 C236.067437,26.8697175 237.196555,26.6605533 238.461166,26.6605533 C239.846216,26.6605533 241.065663,26.9294787 242.119506,27.4673295 C243.158294,28.0051803 244.016423,28.7223148 244.680344,29.6336731 C245.356309,30.5300911 245.824516,31.5759121 246.124108,32.7263152 C246.425206,33.8767183 246.532096,35.0883766 246.441767,36.3568081 L234.561948,36.3568081 C234.561948,37.6401799 235.013595,38.8667785 235.691065,39.5077174 L235.691065,39.5077174 Z M240.868444,30.9484195 C240.327973,30.3657478 239.424679,30.0370612 238.310617,30.0370612 C237.587982,30.0370612 236.984281,30.1565836 236.519084,30.3956284 C236.052382,30.6346732 235.67601,30.9334792 235.374912,31.2920464 C235.088869,31.6506136 234.878101,32.0390614 234.774222,32.4424495 C234.653783,32.8458376 234.592058,33.2044048 234.561948,33.5181511 L241.908737,33.5181511 C241.804859,32.3826883 241.411926,31.5460315 240.868444,30.9484195 L240.868444,30.9484195 Z M233.645105,22.4025678 L242.842141,22.4025678 L242.842141,24.6286725 L233.645105,24.6286725 L233.645105,22.4025678 Z"
                transform="translate(228.006771, 32.367001) rotate(-17.000000) translate(-228.006771, -32.367001) "
            >
            </path>
            <path
                class="icon blogger"
                d="M100.405866,230.720036 L100.064634,230.022848 L99.5026051,229.584615 C98.7599241,229.006945 95.0284542,229.624454 94.0248313,228.70815 C93.320288,228.07072 93.2018605,226.89546 92.9790562,225.301886 C92.577607,222.214338 92.3166651,222.0749 91.8549985,221.019158 C90.1086947,217.334019 85.3515221,214.545265 82.0797114,214.166792 L73.2076849,214.166792 C66.2224695,214.166792 60.5419639,219.843897 60.5419639,226.756022 L60.5419639,241.436818 C60.5419639,248.348943 66.242542,254.006128 73.2076849,254.006128 L87.7782823,254.006128 C94.7634977,254.006128 100.425938,248.348943 100.464076,241.434826 L100.546373,231.275795 L100.405866,230.720036 L100.405866,230.720036 Z M73.3682646,224.445341 L80.3936249,224.445341 C81.7364724,224.445341 82.8223924,225.521003 82.8223924,226.835701 C82.8223924,228.150399 81.7364724,229.245981 80.3936249,229.245981 L73.3682646,229.245981 C72.0234099,229.245981 70.9394972,228.150399 70.9394972,226.835701 C70.9394972,225.540922 72.0234099,224.445341 73.3682646,224.445341 L73.3682646,224.445341 Z M87.6598548,243.647901 L73.3883371,243.647901 C72.0434824,243.647901 70.9595696,242.552319 70.9595696,241.257541 C70.9595696,239.942843 72.0434824,238.869173 73.3883371,238.869173 L87.6598548,238.869173 C88.984637,238.869173 90.0685498,239.942843 90.0685498,241.257541 C90.0685498,242.552319 88.984637,243.647901 87.6598548,243.647901 L87.6598548,243.647901 Z"
            >
            </path>
            <path
                class="icon etsy"
                d="M255.395403,241.427716 C254.672768,241.892359 253.858298,241.367955 252.970059,241.293253 C250.788605,241.11397 248.018504,241.293253 245.308622,241.293253 C242.68907,241.293253 239.994244,241.202117 237.781174,241.293253 C236.637002,241.33658 235.4025,241.741462 234.559426,241.158791 C234.318548,239.186671 236.727331,240.201117 237.64568,239.291253 C237.811284,239.12691 238.232821,237.991447 238.32315,237.289253 C238.579083,235.270818 238.32315,231.940625 238.32315,228.623879 C238.32315,225.486416 238.533919,222.22943 238.32315,220.092967 C238.247876,219.286191 237.886558,218.090967 237.64568,217.822042 C236.921539,216.985385 234.828909,217.627818 235.114952,216.088967 C235.536489,215.401713 236.545167,215.685579 237.132308,215.685579 C242.010094,215.685579 248.950402,215.984385 253.528596,215.416653 C253.963682,215.356892 254.672768,215.043146 255.13947,215.685579 C255.303568,216.342952 254.913646,216.910683 254.866976,217.822042 C254.806756,219.017266 255.515842,221.616878 254.054012,221.288191 C253.331377,221.123848 253.647529,219.70452 253.257608,219.017266 C252.519918,217.762281 248.620699,217.553116 246.136641,217.553116 C244.721481,217.553116 242.613796,217.582997 241.710502,218.479415 C241.499733,220.944564 241.484678,224.291192 241.710502,226.741401 C243.39665,227.040207 246.558179,227.21949 248.56048,227.010326 C249.072346,226.950565 249.825091,226.860923 250.171354,226.606938 C251.256812,225.844983 250.472452,224.485416 251.512745,223.678639 C252.852631,223.69358 252.369369,225.112908 252.324204,226.338013 C252.280545,227.249371 252.280545,228.354953 252.324204,229.131849 C252.400984,230.356954 252.9264,231.65676 251.917722,231.927179 C250.455891,231.434149 251.164977,229.908745 249.900366,229.131849 C248.003449,227.966506 244.525768,229.057147 241.845996,228.862924 C241.379294,230.207551 241.575008,231.895804 241.575008,233.65876 C241.575008,235.212551 241.198635,237.111463 241.845996,238.320133 C242.598741,239.770837 246.3173,239.560178 248.424986,239.380895 C250.895494,239.186671 253.483431,238.693641 254.206066,237.244432 C254.808262,236.049208 254.085627,235.13785 255.140975,234.18167 C257.608473,234.65976 255.908775,236.870924 255.681446,238.707087 C255.544446,239.724522 255.965984,240.695641 255.395403,241.427716 L255.395403,241.427716 Z"
                transform="translate(245.502879, 228.452614) rotate(16.000000) translate(-245.502879, -228.452614) "
            >
            </path>
            <path
                class="icon evernote"
                d="M178.931309,221.758367 C179.168907,225.530994 178.753111,229.247621 178.251185,232.990774 C177.74629,236.792874 177.089926,240.594974 176.083106,244.308654 C175.429712,246.698966 174.56842,248.96549 173.380432,251.14654 C171.925146,253.79622 169.697667,255.302324 166.668296,255.417271 C163.817123,255.538113 160.93625,255.59706 158.082107,255.505692 C156.659491,255.476218 155.204205,255.181482 153.835048,254.857272 C151.162073,254.205904 149.647387,252.410959 149.201892,249.758331 C148.815795,247.344439 148.786096,244.898127 149.290991,242.47834 C149.855285,239.737291 151.51847,238.119188 154.310243,237.792031 C156.151626,237.588662 158.022708,237.615189 159.86409,237.556241 C160.339286,237.556241 160.487784,237.762557 160.306616,238.204662 C159.86409,239.383608 159.772021,240.594974 160.071988,241.82992 C160.190787,242.301498 160.009619,242.507814 159.477994,242.507814 C158.649372,242.507814 157.78511,242.507814 156.953518,242.622761 C155.527931,242.80255 154.785438,243.657286 154.785438,245.098547 C154.785438,245.570126 154.844838,246.041704 154.936907,246.486756 C155.171535,247.606755 155.946697,248.225701 157.042617,248.343596 C159.567093,248.638332 162.091569,248.638332 164.619015,248.225701 C166.133701,247.960438 167.051422,247.017282 167.22962,245.5436 C167.559287,242.655182 167.588987,239.796239 166.724725,236.996242 C165.982232,234.54993 164.467546,233.518352 161.94604,233.226563 C159.424534,232.934774 156.929758,232.489722 154.402312,232.018143 C152.026335,231.576039 150.600748,230.043409 150.095853,227.776886 C149.798856,226.506572 149.798856,225.180257 149.620658,223.856891 L149.38306,223.178997 L149.115762,223.915838 C148.967264,225.418994 148.996964,226.981097 148.699966,228.45478 C148.34357,230.223198 147.779275,231.93267 147.185281,233.642141 C146.769485,234.850561 145.789394,235.498981 144.482606,235.413507 C143.08672,235.292665 141.690833,235.115824 140.294946,234.941929 C136.315184,234.38193 132.365122,233.527194 128.504158,232.407195 L127.078572,231.935617 C124.999592,231.346144 123.752204,229.931409 123.187909,227.956675 C122.356317,225.127205 121.584124,222.265314 120.96043,219.379844 C120.277337,216.226164 119.772441,213.04301 119.297246,209.830383 C119.029948,208.150385 118.88145,206.440913 119.119048,204.731442 C119.475444,202.255656 121.168328,200.487237 123.692804,200.369342 C126.336079,200.221974 129.009054,200.280921 131.682028,200.221974 L132.51362,200.163027 C133.909507,199.86829 134.800499,198.777765 134.770799,197.36303 C134.741099,195.09356 134.741099,192.853563 134.652,190.613565 C134.533201,187.106202 136.433983,185.308309 139.493054,184.777784 C143.175819,184.129363 146.888284,184.276732 150.511649,185.367256 C152.617359,185.986203 153.808318,187.430412 154.342913,189.43462 C154.494381,189.935672 154.66961,190.08304 155.174505,190.08304 C157.104986,190.053566 159.035468,189.965145 160.96595,190.112513 C163.487456,190.221566 165.952532,190.516302 168.447309,190.869986 C169.994664,191.076302 171.50638,191.429985 172.991365,191.813143 C175.604941,192.461563 177.003797,194.288929 177.383954,196.823663 C177.74332,199.299449 178.010618,201.804709 178.188816,204.280495 C178.488783,208.406806 178.696681,212.56259 178.901609,216.6889 C178.990708,218.368898 178.931309,220.078369 178.931309,221.758367 L178.931309,221.758367 Z M168.744306,219.19416 C168.711636,217.720478 168.595807,216.36469 167.731545,215.21227 C166.454458,213.473325 163.695354,213.325957 162.210368,214.88806 C161.408476,215.742796 161.111478,216.833321 160.93328,217.982793 C160.90358,218.071214 161.170878,218.27753 161.286707,218.27753 L163.07166,218.159635 C164.794243,218.159635 166.484157,218.395424 168.120612,219.043844 L168.744306,219.19416 L168.744306,219.19416 Z M132.807647,186.920518 C132.332452,188.040516 132.154254,189.219462 132.183953,190.457355 L132.302752,197.000505 C132.302752,197.796293 132.124554,198.002609 131.322662,198.002609 C129.065483,198.002609 126.778605,198.061556 124.521426,198.032082 C123.214639,198.032082 121.967251,198.267871 121.046559,198.651029 L132.688849,186.773149 L132.807647,186.920518 L132.807647,186.920518 Z"
            >
            </path>
            <path
                class="icon reddit"
                d="M97,157.483347 C97,152.01544 92.5255604,147.57506 87.0157134,147.57506 C84.5788079,147.57506 82.2454431,148.455796 80.43348,150.033783 C73.9252042,145.923678 65.3091347,143.244771 55.7685941,142.914495 L61.4670332,126.877749 L75.6669076,130.253906 C75.6669076,134.730984 79.3278127,138.327325 83.8355332,138.327325 C88.3506495,138.327325 92.0115546,134.694286 92.0115546,130.217208 C92.0115546,125.740131 88.3136706,122.107092 83.8355332,122.107092 C80.43348,122.107092 77.4788707,124.198841 76.2955478,127.171328 L59.466478,123.171315 L52.4774774,142.877798 C42.5301696,143.061284 33.5443116,145.740192 26.777184,149.997085 C24.9652209,148.419099 22.6725329,147.57506 20.2689083,147.57506 C14.7590612,147.57506 10.2846217,152.01544 10.2846217,157.483347 C10.2846217,160.859504 12.0226271,163.978779 14.8699977,165.813647 C14.6851035,166.808146 14.6111459,167.795305 14.6111459,168.822831 C14.6111459,183.134801 32.1021369,194.804562 53.5868426,194.804562 C75.1085271,194.804562 92.5625393,183.134801 92.5625393,168.822831 C92.5625393,167.832002 92.4848837,166.877871 92.3073853,165.887042 C95.1880369,164.052174 97,160.896201 97,157.483347 L97,157.483347 Z M41.1619525,170.327423 C44.5521455,170.327423 47.3004399,167.600048 47.3004399,164.235661 C47.3004399,160.871274 44.5521455,158.143899 41.1619525,158.143899 C37.7717596,158.143899 35.0234652,160.871274 35.0234652,164.235661 C35.0234652,167.600048 37.7717596,170.327423 41.1619525,170.327423 Z M66.7882882,170.327423 C70.1784812,170.327423 72.9267756,167.600048 72.9267756,164.235661 C72.9267756,160.871274 70.1784812,158.143899 66.7882882,158.143899 C63.3980953,158.143899 60.6498009,160.871274 60.6498009,164.235661 C60.6498009,167.600048 63.3980953,170.327423 66.7882882,170.327423 Z M83.7985543,125.226367 C86.5719673,125.226367 88.8276765,127.464906 88.8276765,130.217208 C88.8276765,132.96951 86.5719673,135.208049 83.7985543,135.208049 C81.0251414,135.208049 78.7694322,132.96951 78.7694322,130.217208 C78.7694322,127.464906 81.0584223,125.226367 83.7985543,125.226367 L83.7985543,125.226367 Z M13.3908442,157.483347 C13.3908442,153.736546 16.4600878,150.694335 20.2319295,150.694335 C21.6371254,150.694335 22.9313847,151.098006 24.0777287,151.868651 C20.1209929,154.914532 17.1996646,158.584267 15.720511,162.58428 C14.2413575,161.263175 13.3908442,159.428307 13.3908442,157.483347 L13.3908442,157.483347 Z M53.5498637,191.648589 C33.7661847,191.648589 17.7173684,181.410025 17.7173684,168.789803 C17.7173684,156.165911 33.8031635,145.964045 53.5498637,145.964045 C73.3335428,145.964045 89.3786612,156.202609 89.3786612,168.826501 C89.3786612,181.410025 73.3335428,191.648589 53.5498637,191.648589 L53.5498637,191.648589 Z M91.4161953,162.657674 C89.9370417,158.617295 87.0526922,154.947559 83.0959564,151.901678 C84.2423004,151.094336 85.5735386,150.690665 87.0157134,150.690665 C90.7912529,150.690665 93.8604965,153.736546 93.8604965,157.479677 C93.8567987,159.501701 92.9323277,161.373267 91.4161953,162.657674 L91.4161953,162.657674 Z M53.4759061,185.336643 C43.4546406,185.336643 39.4609259,180.822867 39.2760317,180.639381 C38.7213491,179.978828 38.7953068,179.024697 39.4609259,178.437539 C40.126545,177.887079 41.0879949,177.960473 41.6796563,178.584329 C41.753614,178.690751 45.1186884,182.217367 53.4759061,182.217367 C61.9773412,182.217367 65.7159019,178.584329 65.7528807,178.547631 C66.3445422,177.923776 67.3466687,177.923776 67.975309,178.507264 C68.6039492,179.094422 68.6039492,180.08892 68.0122878,180.712775 C67.8199978,180.896262 63.4232138,185.336643 53.4759061,185.336643 L53.4759061,185.336643 Z"
                transform="translate(53.642311, 158.455827) rotate(20.000000) translate(-53.642311, -158.455827) "
            >
            </path>
            <path
                class="icon wordpress"
                d="M356.24534,22.0629495 C356.24534,29.0833966 360.355327,35.1655927 366.332121,38.0326363 L357.795994,14.8467846 C356.802371,17.057949 356.24534,19.4932179 356.24534,22.0629495 L356.24534,22.0629495 Z M386.204584,21.1665315 C386.204584,18.9703074 385.40818,17.4463968 384.73071,16.2661131 C383.825911,14.8019637 382.969287,13.5619188 382.969287,12.0977693 C382.969287,10.4692766 384.218843,8.94536602 385.980266,8.94536602 L386.204584,8.96030632 C383.028001,6.07682839 378.78252,4.31387298 374.130557,4.31387298 C367.882775,4.31387298 362.372683,7.4961569 359.181045,12.3218738 L360.325217,12.3368141 C362.207079,12.3368141 365.097619,12.1127096 365.097619,12.1127096 C366.061132,12.0678887 366.181572,13.4573367 365.203003,13.5768591 C365.203003,13.5768591 364.23949,13.6814412 363.155537,13.7412024 L369.674308,32.9693686 L373.588581,21.3159345 L370.803425,13.7412024 C369.839912,13.6814412 368.921563,13.5768591 368.921563,13.5768591 C367.958049,13.5170979 368.078489,12.0529484 369.042002,12.1127096 C369.042002,12.1127096 371.992762,12.3368141 373.754185,12.3368141 C375.620992,12.3368141 378.526587,12.1127096 378.526587,12.1127096 C379.491606,12.0678887 379.612045,13.4573367 378.631971,13.5768591 C378.631971,13.5768591 377.666952,13.6814412 376.584505,13.7412024 L383.058111,32.8199656 L384.849643,26.9051008 C385.754443,24.6013065 386.204584,22.6904421 386.204584,21.1665315 L386.204584,21.1665315 Z M374.44671,23.6167407 L369.072112,39.0948917 C370.667931,39.558041 372.369134,39.8120261 374.130557,39.8120261 C376.208133,39.8120261 378.210434,39.4534589 380.060681,38.811026 L379.940242,38.5719812 L374.44671,23.6167407 L374.44671,23.6167407 Z M389.832814,13.5469785 C389.909594,14.1147099 389.953253,14.7123219 389.953253,15.3696951 C389.953253,17.1625311 389.606991,19.1944119 388.598313,21.7342629 L383.133385,37.4066378 C388.446258,34.3289359 392.030829,28.606801 392.030829,22.0629495 C392.015774,18.9852477 391.217865,16.0718892 389.832814,13.5469785 L389.832814,13.5469785 Z"
            >
            </path>
            <path
                class="icon wordpress"
                d="M242.780689,146.643218 C242.780689,150.807992 245.218877,154.416162 248.764519,156.116992 L243.700592,142.362338 C243.11114,143.674077 242.780689,145.118764 242.780689,146.643218 L242.780689,146.643218 Z M260.553556,146.111432 C260.553556,144.808555 260.081102,143.904518 259.679203,143.204333 C259.142444,142.335748 258.634265,141.600111 258.634265,140.731526 C258.634265,139.765448 259.375546,138.861411 260.420483,138.861411 L260.553556,138.870274 C258.669097,137.159694 256.15053,136.113848 253.390823,136.113848 C249.684421,136.113848 246.415643,138.001689 244.522252,140.864473 L245.201015,140.873336 C246.317401,140.873336 248.03217,140.740389 248.03217,140.740389 C248.603759,140.7138 248.675208,141.538069 248.094687,141.608974 C248.094687,141.608974 247.523098,141.671015 246.880059,141.706468 L250.747221,153.113286 L253.069304,146.200063 L251.417052,141.706468 C250.845463,141.671015 250.300666,141.608974 250.300666,141.608974 C249.729077,141.573521 249.800525,140.704937 250.372115,140.740389 C250.372115,140.740389 252.122608,140.873336 253.167546,140.873336 C254.275001,140.873336 255.998701,140.740389 255.998701,140.740389 C256.571184,140.7138 256.642633,141.538069 256.061219,141.608974 C256.061219,141.608974 255.488736,141.671015 254.846591,141.706468 L258.686959,153.024654 L259.749758,149.515751 C260.286517,148.14906 260.553556,147.015468 260.553556,146.111432 L260.553556,146.111432 Z M253.578376,147.564981 L250.389977,156.747159 C251.336673,157.021915 252.345886,157.172588 253.390823,157.172588 C254.623313,157.172588 255.811148,156.959874 256.908779,156.57876 L256.83733,156.43695 L253.578376,147.564981 L253.578376,147.564981 Z M262.705949,141.591247 C262.751497,141.928045 262.777397,142.28257 262.777397,142.672546 C262.777397,143.736119 262.571982,144.941502 261.973599,146.44823 L258.731614,155.745628 C261.883395,153.919828 264.009888,150.525258 264.009888,146.643218 C264.000957,144.817418 263.527609,143.089112 262.705949,141.591247 L262.705949,141.591247 Z"
            >
            </path>
            <path
                class="icon flickr"
                d="M144.3125,59 L128.6875,59 C126.099609,59 124,61.0996094 124,63.6875 L124,79.3125 C124,81.9003906 126.099609,84 128.6875,84 L144.3125,84 C146.900391,84 149,81.9003906 149,79.3125 L149,63.6875 C149,61.0996094 146.900391,59 144.3125,59 L144.3125,59 Z M135.360677,71.5 C135.360677,73.4042969 133.814453,74.9505208 131.910156,74.9505208 C130.005859,74.9505208 128.459635,73.4042969 128.459635,71.5 C128.459635,69.5957031 130.005859,68.0494792 131.910156,68.0494792 C133.814453,68.0494792 135.360677,69.5957031 135.360677,71.5 L135.360677,71.5 Z M144.540365,71.5 C144.540365,73.4042969 142.994141,74.9505208 141.089844,74.9505208 C139.185547,74.9505208 137.639323,73.4042969 137.639323,71.5 C137.639323,69.5957031 139.185547,68.0494792 141.089844,68.0494792 C142.994141,68.0494792 144.540365,69.5957031 144.540365,71.5 L144.540365,71.5 Z"
            >
            </path>
            <path
                class="icon flickr"
                d="M644.071809,205.986267 L624.071809,205.986267 C620.759309,205.986267 618.071809,208.673767 618.071809,211.986267 L618.071809,231.986267 C618.071809,235.298767 620.759309,237.986267 624.071809,237.986267 L644.071809,237.986267 C647.384309,237.986267 650.071809,235.298767 650.071809,231.986267 L650.071809,211.986267 C650.071809,208.673767 647.384309,205.986267 644.071809,205.986267 L644.071809,205.986267 Z M632.613476,221.986267 C632.613476,224.423767 630.634309,226.402934 628.196809,226.402934 C625.759309,226.402934 623.780143,224.423767 623.780143,221.986267 C623.780143,219.548767 625.759309,217.569601 628.196809,217.569601 C630.634309,217.569601 632.613476,219.548767 632.613476,221.986267 L632.613476,221.986267 Z M644.363476,221.986267 C644.363476,224.423767 642.384309,226.402934 639.946809,226.402934 C637.509309,226.402934 635.530143,224.423767 635.530143,221.986267 C635.530143,219.548767 637.509309,217.569601 639.946809,217.569601 C642.384309,217.569601 644.363476,219.548767 644.363476,221.986267 L644.363476,221.986267 Z"
                transform="translate(634.071809, 221.986267) rotate(-11.000000) translate(-634.071809, -221.986267) "
            >
            </path>
            <path
                class="icon instagram"
                d="M663.576516,85.702483 C663.576516,87.1530489 662.424596,88.3049689 660.97403,88.3049689 L615.366532,88.3049689 C613.915966,88.3049689 612.764046,87.1530489 612.764046,85.702483 L612.764046,58.0564038 L618.779628,58.0564038 C618.225,59.8056156 617.926354,61.7254822 617.926354,63.6453488 C617.926354,74.5672567 627.056386,83.3986431 638.27694,83.3986431 C649.540158,83.3986431 658.67019,74.5672567 658.67019,63.6453488 C658.67019,61.7254822 658.371544,59.8056156 657.816916,58.0564038 L663.576516,58.0564038 L663.576516,85.702483 Z M651.460024,62.9627296 C651.460024,70.0022405 645.572433,75.7191766 638.27694,75.7191766 C631.024111,75.7191766 625.13652,70.0022405 625.13652,62.9627296 C625.13652,55.9232186 631.024111,50.2062825 638.27694,50.2062825 C645.572433,50.2062825 651.460024,55.9232186 651.460024,62.9627296 L651.460024,62.9627296 Z M663.576516,47.6037966 C663.576516,49.2250173 662.253941,50.5475921 660.63272,50.5475921 L653.209236,50.5475921 C651.588015,50.5475921 650.265441,49.2250173 650.265441,47.6037966 L650.265441,40.5642857 C650.265441,38.943065 651.588015,37.6204902 653.209236,37.6204902 L660.63272,37.6204902 C662.253941,37.6204902 663.576516,38.943065 663.576516,40.5642857 L663.576516,47.6037966 Z M671,38.7297465 C671,34.1220666 667.20293,30.3249971 662.595251,30.3249971 L613.873302,30.3249971 C609.265622,30.3249971 605.468553,34.1220666 605.468553,38.7297465 L605.468553,87.4516948 C605.468553,92.0593747 609.265622,95.8564442 613.873302,95.8564442 L662.595251,95.8564442 C667.20293,95.8564442 671,92.0593747 671,87.4516948 L671,38.7297465 Z"
                transform="translate(638.234276, 63.090721) rotate(21.000000) translate(-638.234276, -63.090721) "
            >
            </path>
        </pattern>

    </defs>

    <rect fill="url(#blue-gradient)" x="0" y="0" width="100%" height="100%"/>

    <rect fill="url(#logo-pattern)" x="0" y="0" width="200%" height="200%" transform="scale(0.5)"/>

</svg>