<?xml version="1.0" encoding="utf-8"?>
<svg version="1.1" id="Layer_1" xmlns="http://www.w3.org/2000/svg" xmlns:xlink="http://www.w3.org/1999/xlink" x="0px" y="0px"
	 viewBox="-615 45 50 50" style="enable-background:new -615 45 50 50;" xml:space="preserve">
<g>
	<path d="M-590,95c-13.8,0-25-11.2-25-25s11.2-25,25-25s25,11.2,25,25S-576.2,95-590,95z M-590,47c-12.7,0-23,10.3-23,23
		c0,12.7,10.3,23,23,23c12.7,0,23-10.3,23-23C-567,57.3-577.3,47-590,47z"/>
</g>
<g>
	<path d="M-601.5,83.5c-0.3,0-0.5-0.1-0.7-0.3c-0.4-0.4-0.4-1,0-1.4l23-23c0.4-0.4,1-0.4,1.4,0s0.4,1,0,1.4l-23,23
		C-601,83.4-601.2,83.5-601.5,83.5z"/>
</g>
<g>
	<path d="M-577.7,84.4c-0.3,0-0.5-0.1-0.7-0.3l-24.7-24.8c-0.4-0.4-0.4-1,0-1.4c0.4-0.4,1-0.4,1.4,0l24.7,24.8c0.4,0.4,0.4,1,0,1.4
		C-577.2,84.3-577.4,84.4-577.7,84.4z"/>
</g>
</svg>
